<svg xmlns="http://www.w3.org/2000/svg" viewBox="0 0 400 400" enable-background="new 0 0 400 400"><path fill="#fff" d="M8.4 223.3c0-19.6 12.2-38.9 35.1-36l23.3 3.3v-3.3h31.1v188.1c0 10.1-7.2 19.6-20.2 19.6h-47c-15.7 0-19.6-9.2-19.6-19.6v-17h30.1v11.4h25.5v-30.1l-33.6 3c-15.8 0-24.6-10.7-24.6-25.9l-.1-93.5zm31.1 93.4h27.1v-102h-12.8c-11.2 0-14.3 2.7-14.3 14.1v87.9zM125.3 187.3h31.4v155.3h-31.4zM183.1 92.8h31.1v249.9h-31.1zM241.7 223.3c0-19.6 11.8-36 35.1-36h22.9v-94.5h31.4v249.9l-30.7.4v-3.6l-24.5 4.9c-23.3 0-34.1-19.3-34.1-38.9l-.1-82.2zm58.2-10.2h-9.2c-14.7 0-18 7.8-18 19.3v63.5c0 12.8 4.6 19.6 18 19.6h9.2v-102.4z"/><path fill="#EF6020" d="M153.5 3.9v110.6l-71.4 47.4-74-46.9v-110.1"/><path fill="#fff" d="M54.2 34.1l21.5 18.2 4.7-27.5 20 3.5-5.1 28.7 27.6-9.5 6.4 19-26.9 8.7 21.7 18.4-13.3 15.6-21.8-18.7-5.8 29-19.2-3.2 5.3-28.6-27.5 9.3-6.9-17.8 28.1-10.8-22-18.8zM386.6 331.8c0 11.2-8.8 20.1-20.4 20.1-11.4 0-20.5-8.8-20.5-20.1 0-11 9-19.9 20.5-19.9s20.4 8.9 20.4 19.9m-35.8 0c0 8.8 6.6 15.9 15.5 15.9 8.8 0 15.2-7 15.2-15.8s-6.4-16-15.3-16c-8.7.1-15.4 7.2-15.4 15.9m12.3 10.5h-4.7v-19.9c1.8-.4 4.3-.6 7.6-.6 3.7 0 5.4.6 6.9 1.4 1.1.8 1.9 2.4 1.9 4.3 0 2.2-1.7 3.9-4.1 4.6v.2c1.9.7 3 2.2 3.6 4.8.6 3 1 4.2 1.4 4.9h-4.9c-.6-.7-1-2.5-1.6-4.8-.4-2.2-1.6-3.1-4.1-3.1h-2.1l.1 8.2zm.1-11.3h2.2c2.5 0 4.6-.8 4.6-2.9 0-1.8-1.3-3-4.2-3-1.2 0-2 .1-2.5.2l-.1 5.7z"/></svg>
